<?xml version="1.0" standalone="no"?>
<!DOCTYPE svg PUBLIC "-//W3C//DTD SVG 20010904//EN"
 "http://www.w3.org/TR/2001/REC-SVG-20010904/DTD/svg10.dtd">
<svg version="1.0" xmlns="http://www.w3.org/2000/svg"
 width="900.000000pt" height="760.000000pt" viewBox="0 0 900.000000 760.000000"
 preserveAspectRatio="xMidYMid meet">
<metadata>
Created by potrace 1.15, written by Peter Selinger 2001-2017
</metadata>
<g transform="translate(0.000000,760.000000) scale(0.100000,-0.100000)"
fill="#000000" stroke="none">
<path d="M3845 7581 c-65 -39 -116 -122 -129 -212 -11 -71 17 -180 73 -291
l49 -97 -49 -32 c-94 -60 -201 -201 -251 -331 -11 -29 -33 -102 -48 -163 -23
-95 -30 -110 -48 -113 -12 -2 -22 -9 -22 -16 0 -16 49 -83 79 -110 l21 -19 -6
49 c-3 27 -7 57 -9 67 -8 40 17 135 57 220 38 81 46 91 90 113 26 13 52 24 58
24 6 0 10 -28 10 -70 0 -64 -2 -70 -20 -70 -60 0 -120 -72 -120 -144 0 -26 8
-41 35 -65 l35 -31 -39 -39 c-21 -21 -48 -42 -60 -46 -12 -3 -21 -11 -21 -16
0 -18 30 -21 76 -10 44 11 47 11 80 -19 39 -34 67 -40 57 -12 -4 9 -21 37 -39
61 l-31 44 24 61 c14 34 28 88 30 121 3 33 12 72 19 87 8 15 14 53 14 86 0 36
6 66 15 78 8 10 15 23 15 28 0 13 -90 -2 -116 -19 -20 -13 -23 -12 -28 1 -8
22 -8 24 7 24 7 0 26 14 42 30 34 36 94 54 147 46 34 -6 39 -4 53 25 25 48 7
63 -73 56 l-64 -5 33 34 c43 44 63 49 119 28 30 -11 88 -17 175 -20 297 -9
420 -50 478 -157 20 -37 22 -56 22 -172 0 -71 -2 -186 -4 -255 -4 -113 -2
-130 18 -175 26 -59 48 -85 71 -85 9 0 37 -13 61 -30 29 -20 57 -30 82 -30 35
0 39 3 54 38 9 20 20 90 26 155 l11 117 60 0 c38 0 74 7 96 18 34 16 35 19 34
70 -3 80 -41 148 -134 234 -43 40 -81 84 -85 97 -7 22 -5 23 21 17 16 -4 67
-9 114 -12 74 -5 89 -3 117 15 47 29 65 64 65 121 0 126 -128 214 -350 240
-144 17 -152 19 -152 40 0 13 27 38 79 75 110 77 145 118 138 162 -8 46 -47
96 -94 118 -90 43 -284 24 -418 -40 -38 -18 -103 -61 -142 -94 -40 -34 -78
-61 -85 -61 -7 1 -26 28 -43 61 -36 74 -108 165 -154 196 -41 28 -86 29 -126
4z"/>
<path d="M4058 6859 c-39 -29 -35 -47 10 -54 101 -17 132 -28 166 -61 52 -50
66 -85 87 -207 10 -61 21 -112 23 -115 3 -2 13 -2 22 2 14 6 16 16 11 74 -16
164 -73 298 -151 350 -59 39 -125 44 -168 11z"/>
<path d="M4040 6681 c0 -6 5 -11 11 -11 7 0 -18 -22 -54 -50 -36 -27 -82 -71
-102 -97 -53 -69 -105 -181 -111 -239 -10 -83 4 -181 30 -211 l22 -26 137 18
c111 14 146 15 192 5 179 -37 210 -256 57 -391 -97 -85 -314 -167 -487 -184
-177 -17 -352 51 -508 197 l-72 67 56 1 c33 0 92 -11 140 -25 170 -51 216 -58
308 -45 152 21 253 76 267 148 l6 30 57 -21 c55 -20 111 -19 111 3 0 19 -82
51 -153 60 -63 8 -212 -1 -224 -14 -2 -2 18 -7 44 -10 110 -16 113 -17 113
-42 0 -34 -40 -74 -85 -85 -22 -5 -89 -12 -150 -15 l-110 -6 -110 42 c-151 58
-237 63 -423 25 -74 -14 -135 -25 -137 -23 -10 10 48 111 103 179 68 85 144
147 218 181 39 17 73 23 168 26 l118 5 -68 38 c-82 46 -99 49 -90 15 6 -23 3
-24 -65 -31 -38 -4 -73 -5 -75 -2 -11 11 35 96 59 112 14 9 53 20 87 25 74 10
82 16 45 30 -20 7 -44 8 -79 1 -28 -6 -71 -13 -96 -16 -53 -7 -146 -47 -177
-77 -12 -12 -28 -37 -34 -56 -16 -48 7 -66 70 -58 l44 6 -114 -112 c-126 -124
-179 -206 -179 -280 l0 -38 53 0 c28 0 85 6 125 14 l72 14 81 -61 c86 -63 139
-131 139 -177 0 -22 -19 -41 -110 -110 -183 -138 -268 -243 -320 -396 -28 -82
-27 -122 6 -134 14 -6 36 -10 50 -10 13 0 24 -2 24 -5 0 -3 -33 -51 -74 -107
-149 -208 -191 -316 -191 -496 0 -61 -3 -112 -6 -112 -3 0 -32 5 -64 11 -164
30 -271 148 -283 309 -8 112 20 164 142 266 81 68 106 113 81 150 -28 44 -70
57 -154 50 l-76 -7 0 123 c-1 149 -22 250 -75 363 -69 149 -160 224 -280 233
-58 4 -76 1 -124 -21 -105 -49 -234 -196 -292 -334 -15 -38 -29 -69 -30 -71
-1 -2 -15 3 -31 11 -16 9 -45 18 -66 22 -41 8 -40 10 -57 -77 l-11 -57 -30 11
c-22 8 -38 7 -56 -1 -24 -11 -25 -15 -21 -74 4 -41 24 -110 61 -207 52 -138
73 -213 79 -290 l3 -35 -58 -7 c-69 -9 -111 -32 -138 -75 -24 -39 -19 -52 43
-109 47 -42 85 -67 253 -165 92 -53 129 -82 224 -179 107 -107 156 -150 174
-150 14 0 7 54 -14 97 -36 74 -175 182 -404 313 -143 82 -192 115 -212 146
-20 31 -12 38 64 54 80 17 153 -6 304 -95 154 -92 174 -96 126 -24 -16 24 -51
49 -121 85 -125 65 -160 99 -185 178 -10 34 -44 140 -74 236 -72 228 -74 240
-50 240 63 0 173 -121 237 -262 36 -76 88 -242 101 -316 l7 -44 24 23 c18 17
31 20 56 16 140 -25 149 -26 216 -12 85 18 92 18 92 0 0 -19 10 -19 38 1 33
23 49 61 67 160 18 97 36 148 63 178 27 30 113 66 158 66 39 0 104 -17 104
-26 0 -21 -41 -71 -103 -127 -111 -99 -137 -167 -107 -277 13 -48 15 -157 5
-248 l-6 -57 36 42 36 43 37 -30 c83 -66 269 -130 379 -130 70 0 77 -12 46
-74 -72 -143 -97 -272 -92 -487 5 -202 8 -207 115 -211 l77 -3 19 -92 c60
-299 219 -561 468 -768 137 -114 381 -268 398 -250 11 10 -82 96 -219 200
-147 113 -301 265 -366 360 -121 179 -191 386 -215 638 -7 70 -15 126 -19 125
-4 -2 -22 -23 -41 -48 -31 -41 -90 -90 -109 -90 -10 0 -27 53 -35 111 -11 83
15 336 42 399 12 31 35 98 50 150 15 53 37 108 51 124 13 16 33 46 44 67 11
22 21 39 24 39 3 0 4 -23 3 -51 -1 -84 46 -126 112 -99 31 13 43 35 69 130 13
45 17 79 12 101 -7 32 -9 29 -35 -56 -37 -125 -42 -135 -67 -135 -21 0 -22 2
-16 88 4 48 11 102 16 120 7 24 6 44 -6 78 -8 25 -19 42 -23 37 -3 -4 -15 -36
-25 -70 -11 -38 -25 -65 -35 -68 -9 -3 -38 -30 -64 -60 -52 -60 -125 -109
-149 -99 -26 10 -40 68 -32 137 22 193 124 432 234 550 24 26 41 50 37 54 -3
4 -25 9 -49 12 -42 6 -42 6 -41 48 1 82 96 234 225 362 73 72 116 98 132 82
20 -20 37 -12 37 17 0 15 3 43 6 63 l6 36 90 -53 c142 -84 200 -89 421 -39
341 77 557 242 557 425 0 32 -8 72 -19 95 -26 58 -102 121 -170 142 -31 9 -57
18 -59 19 -2 1 15 39 38 84 44 87 80 209 80 269 0 84 -39 154 -102 184 -45 21
-118 32 -118 18z m143 -88 c24 -33 31 -55 35 -111 13 -191 -131 -370 -313
-389 -53 -6 -55 -5 -66 23 -6 16 -15 56 -21 89 -19 112 26 228 131 339 69 71
113 96 166 93 34 -2 43 -8 68 -44z m-2177 -1034 c87 -41 181 -170 218 -300 21
-74 34 -220 25 -287 -8 -55 -41 -105 -78 -117 -19 -6 -91 -152 -91 -183 0 -51
-28 -92 -77 -115 -70 -31 -209 -31 -275 2 -63 30 -79 55 -133 207 -70 196 -78
229 -72 314 13 212 193 472 346 500 46 9 86 3 137 -21z"/>
<path d="M3991 6434 c-29 -21 -71 -109 -71 -151 0 -44 36 -84 77 -85 68 -2
113 58 113 150 0 86 -58 128 -119 86z"/>
<path d="M3180 6513 c-27 -10 -70 -44 -80 -63 -9 -16 -6 -22 17 -34 25 -13 63
-20 87 -17 5 1 -1 12 -14 26 -13 14 -21 28 -17 31 14 15 124 5 167 -15 46 -21
90 -27 90 -13 0 15 -55 61 -92 76 -36 15 -127 20 -158 9z"/>
<path d="M4570 6031 c0 -5 24 -28 53 -52 30 -24 69 -63 87 -86 31 -41 68 -138
57 -150 -3 -3 -54 20 -112 52 -59 31 -108 55 -110 53 -2 -1 19 -57 45 -123 26
-66 47 -121 45 -123 -6 -6 -76 28 -119 57 -25 17 -47 28 -49 24 -2 -5 -7 -25
-11 -45 -8 -44 -40 -69 -186 -144 l-95 -49 46 -3 c41 -3 76 6 160 42 14 6 19
-8 33 -85 27 -148 49 -176 236 -302 132 -89 190 -154 190 -211 0 -21 -6 -26
-35 -32 -57 -10 -120 5 -213 52 -86 43 -125 53 -137 34 -9 -14 41 -105 102
-189 85 -114 101 -163 59 -182 -45 -21 -201 43 -346 141 -121 82 -147 41 -36
-58 151 -134 327 -190 450 -143 28 11 28 13 23 61 -8 64 -37 130 -88 198 -23
29 -39 55 -37 57 2 3 83 -30 178 -71 217 -95 311 -127 470 -165 231 -55 252
-71 68 -53 -244 25 -340 14 -478 -56 -141 -70 -220 -141 -220 -198 0 -21 1
-22 28 -8 16 8 78 48 138 89 61 41 137 84 169 97 55 20 72 22 200 17 170 -6
315 -28 729 -111 356 -71 406 -89 463 -164 57 -75 69 -72 -266 -72 -179 0
-302 -4 -306 -9 -17 -29 115 -44 543 -61 145 -6 289 -16 320 -21 31 -6 82 -11
112 -13 62 -3 140 -25 140 -38 0 -38 -100 -144 -180 -191 -95 -55 -205 -81
-526 -122 -109 -14 -284 -36 -388 -50 -104 -14 -193 -25 -197 -25 -4 0 -9 15
-11 33 -2 26 -8 33 -29 35 -19 2 -32 -4 -46 -21 -39 -50 -140 -131 -199 -159
-33 -15 -97 -35 -142 -43 -45 -8 -101 -23 -124 -34 l-43 -21 105 4 c120 4 207
29 342 97 80 40 87 42 243 55 88 8 324 37 524 64 200 28 370 50 378 48 11 -2
3 -16 -26 -50 -127 -144 -409 -280 -731 -352 -137 -30 -357 -62 -367 -53 -3 4
1 15 10 25 23 25 47 86 47 118 0 24 -11 16 -103 -78 -125 -126 -172 -152 -367
-202 -74 -18 -151 -41 -170 -49 l-35 -15 55 -1 c83 -1 192 22 324 68 121 42
180 52 406 71 288 24 593 125 812 268 109 72 224 184 259 254 36 71 75 117
142 164 71 51 116 94 133 127 13 24 13 30 -3 51 -51 67 -159 103 -339 113
l-121 6 -42 54 c-71 92 -210 167 -407 218 -54 14 -199 44 -322 66 -351 62
-381 85 -124 92 142 3 192 9 251 26 121 36 255 107 390 209 141 107 223 150
302 159 l53 6 -85 -104 c-99 -121 -175 -226 -168 -234 7 -7 86 44 133 86 21
18 100 103 174 187 209 238 313 312 436 312 66 0 136 -18 136 -34 0 -40 -84
-140 -303 -364 -221 -225 -298 -314 -284 -328 7 -7 131 100 272 236 66 63 160
153 208 198 l88 83 41 -23 c49 -27 88 -79 88 -118 0 -61 -67 -157 -308 -439
-57 -67 -96 -121 -89 -121 24 0 130 84 176 137 37 44 119 113 135 113 12 0 6
-170 -8 -242 -35 -175 -100 -348 -227 -598 -176 -347 -321 -552 -554 -785
-191 -191 -291 -267 -465 -355 -63 -32 -124 -65 -135 -74 -19 -14 -17 -15 30
-16 65 0 109 13 229 67 54 24 100 42 103 39 9 -8 -48 -96 -92 -140 -54 -56
-97 -83 -216 -135 -53 -23 -107 -53 -120 -67 -27 -28 -28 -28 57 -9 36 9 69
13 72 10 12 -12 -118 -123 -209 -178 -86 -52 -103 -59 -167 -64 -40 -3 -72
-10 -72 -14 0 -5 9 -9 20 -9 29 0 113 -30 133 -48 17 -16 17 -16 -1 -23 -27
-10 -200 6 -387 36 -220 35 -207 36 -200 -28 4 -28 9 -58 11 -66 7 -22 -71 -5
-153 34 -92 45 -181 116 -230 184 -51 73 -100 127 -107 120 -7 -7 21 -100 49
-163 l16 -39 -130 5 -130 6 26 -50 c33 -62 24 -82 -36 -86 -101 -8 -244 117
-331 288 l-23 45 -9 -35 c-5 -19 -11 -41 -13 -48 -3 -9 -29 4 -80 38 -41 28
-75 46 -75 40 0 -20 38 -85 62 -106 12 -12 57 -43 98 -69 41 -26 97 -69 123
-96 52 -53 142 -101 227 -124 72 -19 110 -19 139 1 21 15 23 23 19 76 l-4 60
35 -6 c20 -3 42 -6 49 -6 26 0 8 -319 -28 -498 -20 -101 -44 -149 -114 -226
l-45 -49 -80 23 c-71 21 -87 22 -140 13 -57 -11 -113 -6 -142 13 -8 5 -77 10
-154 12 -77 2 -174 4 -216 5 -74 2 -77 1 -106 -30 -16 -17 -58 -44 -94 -61
-67 -30 -109 -70 -109 -103 0 -22 8 -23 45 -9 14 5 41 6 61 2 l36 -7 -50 -33
c-43 -27 -82 -79 -82 -107 0 -5 25 15 55 44 30 29 71 59 91 67 32 13 38 13 59
0 12 -8 25 -27 28 -43 8 -37 -17 -55 -113 -83 -112 -33 -120 -55 -11 -29 40 9
48 7 100 -22 38 -22 75 -34 116 -38 46 -5 60 -10 59 -22 -1 -12 11 -7 48 18
70 47 168 46 168 -2 0 -43 -10 -55 -46 -55 -49 0 -94 -22 -134 -65 -35 -38
-29 -39 22 -3 32 22 52 23 69 1 22 -26 110 -63 151 -63 20 0 65 9 100 20 34
11 66 20 70 20 4 0 -5 -25 -19 -56 -20 -44 -26 -75 -29 -157 -4 -94 -3 -100
10 -72 7 17 21 55 30 86 20 68 32 80 91 87 43 4 45 3 45 -21 0 -13 -16 -47
-35 -73 -48 -68 -95 -147 -95 -161 0 -24 19 -13 45 24 l25 38 112 0 c138 0
155 8 253 114 166 180 220 223 346 276 89 38 172 43 286 16 106 -25 163 -26
255 -7 51 11 76 12 102 4 27 -9 39 -8 51 2 38 31 2 108 -86 184 -75 66 -92 69
-280 61 -117 -5 -173 -4 -188 4 -31 17 -27 64 13 140 74 144 131 384 161 679
4 36 12 62 18 62 7 0 64 -7 127 -16 152 -20 239 -8 308 43 39 30 42 64 7 95
-14 12 -25 25 -25 30 0 4 18 17 40 28 61 31 226 168 320 266 114 118 196 223
254 324 36 62 85 121 198 238 183 189 242 262 373 462 214 325 346 610 412
890 20 85 26 142 30 298 l6 192 44 66 c24 36 46 79 50 94 7 40 -31 104 -102
168 -64 59 -64 60 10 132 58 56 81 96 65 115 -39 47 -211 83 -319 67 -105 -15
-165 -48 -275 -148 -105 -97 -135 -113 -211 -114 -118 -1 -220 -47 -415 -185
-156 -111 -301 -186 -415 -215 -167 -43 -430 -42 -619 4 -107 26 -276 96 -276
114 0 5 7 23 15 38 25 48 19 114 -14 165 -31 46 -58 68 -226 186 -164 115
-218 190 -219 301 0 73 13 91 70 99 31 4 43 1 58 -16 20 -22 69 -28 94 -12 19
11 17 86 -2 140 -9 24 -14 46 -12 49 3 2 31 -12 63 -32 71 -44 100 -46 109 -9
9 34 -12 135 -37 185 -30 59 -85 114 -142 142 -53 27 -77 32 -77 17z m215
-4183 l37 -31 -7 -81 c-9 -112 -36 -211 -100 -373 -51 -130 -85 -239 -85 -271
0 -12 11 -13 58 -8 31 4 83 10 116 13 l58 6 -16 -31 c-8 -16 -33 -44 -53 -61
-68 -56 -105 -62 -478 -73 -253 -8 -348 -14 -370 -24 -16 -8 -59 -39 -94 -69
-85 -72 -149 -82 -234 -39 l-28 15 21 26 c26 34 26 85 -2 135 l-23 40 35 29
c51 43 89 46 169 15 36 -14 74 -26 83 -26 9 0 18 -6 21 -12 3 -10 8 -8 18 4
44 55 159 49 212 -10 19 -21 19 -21 53 14 43 42 78 44 158 9 70 -31 70 -31 50
1 -34 52 -93 65 -194 43 -51 -11 -100 -6 -100 10 0 14 84 36 135 34 28 0 79
-11 115 -22 l65 -21 29 32 c123 141 111 131 153 124 37 -7 38 -6 17 11 -30 26
-35 48 -23 99 9 36 17 45 38 50 14 3 37 9 51 13 24 8 22 9 -18 21 -38 12 -42
16 -38 39 3 14 8 52 12 83 l6 57 47 14 46 14 -30 12 c-16 6 -36 14 -44 17 -11
3 -12 21 -7 90 4 47 11 96 16 109 8 21 12 22 48 13 22 -5 56 -24 77 -40z m432
-25 c12 -30 14 -61 10 -143 -6 -124 -36 -246 -132 -535 l-66 -200 21 -17 c15
-12 39 -18 76 -18 47 0 56 -3 71 -26 l17 -26 22 26 c30 34 58 33 84 -4 25 -35
40 -31 40 9 0 24 5 29 31 33 82 12 152 -25 163 -88 9 -44 -13 -77 -68 -104
-54 -26 -76 -25 -226 6 -240 50 -338 12 -594 -228 -147 -139 -170 -154 -252
-169 -78 -15 -88 -9 -69 37 8 20 15 58 15 85 0 47 -1 48 -35 58 -22 6 -48 6
-67 0 -17 -5 -33 -7 -35 -6 -9 9 39 75 67 91 36 21 109 26 174 13 l38 -8 -16
23 c-9 12 -16 29 -16 38 0 19 76 70 106 70 33 0 86 20 122 47 20 15 58 29 100
36 l67 11 -54 12 c-53 12 -55 12 -130 -26 -42 -21 -121 -50 -176 -65 -55 -15
-147 -45 -205 -67 -146 -56 -194 -68 -280 -68 -102 0 -109 7 -60 55 31 30 40
47 40 72 0 29 -5 36 -45 55 -25 12 -45 25 -45 29 0 15 62 59 96 68 44 12 89 0
124 -34 l27 -26 30 30 c51 51 183 52 215 2 13 -21 38 -17 38 6 0 8 15 20 34
28 27 12 49 12 123 3 81 -10 96 -10 138 6 57 22 149 111 185 178 24 46 26 47
75 50 l50 3 -36 22 -36 23 17 62 c17 63 17 63 65 75 26 7 49 14 52 16 2 3 -15
12 -37 21 l-41 16 7 53 c11 82 17 93 74 113 28 10 48 19 43 21 -4 1 -27 7 -50
13 l-43 11 0 58 c0 53 4 64 40 112 23 30 43 64 46 77 4 15 14 22 31 22 18 0
28 -9 40 -37z m-264 -59 c34 -11 49 -23 53 -39 17 -69 -31 -372 -84 -525 l-19
-55 -59 -7 c-32 -4 -80 -10 -106 -13 -40 -5 -48 -3 -48 10 0 9 27 81 60 159
44 107 64 170 80 256 26 147 50 230 65 230 6 0 33 -7 58 -16z m-1213 -600 c42
-12 75 -14 155 -9 105 7 143 -1 173 -38 11 -12 -4 -15 -97 -21 -88 -6 -121 -4
-170 10 -73 20 -142 15 -202 -14 -24 -12 -45 -20 -47 -17 -2 2 6 22 18 43 36
63 75 74 170 46z"/>
<path d="M4070 4746 c0 -2 21 -57 46 -121 48 -125 84 -250 84 -297 0 -89 -44
-165 -102 -174 -87 -15 -164 55 -259 236 -75 142 -112 200 -126 200 -7 0 -13
-2 -13 -4 0 -28 112 -287 154 -356 30 -51 56 -95 58 -98 2 -4 27 -24 56 -45
48 -34 57 -37 123 -37 83 0 134 23 165 73 30 50 25 197 -10 305 -40 123 -114
295 -133 310 -16 11 -43 17 -43 8z"/>
<path d="M3628 4490 c-31 -68 -41 -161 -42 -400 l-1 -235 -32 -3 c-42 -4 -100
33 -149 95 -21 26 -55 69 -77 96 -47 58 -52 92 -40 285 5 73 6 135 4 137 -2 3
-17 -5 -34 -17 l-30 -21 5 -192 c6 -190 6 -191 37 -254 41 -80 96 -140 178
-192 57 -35 70 -40 104 -34 21 4 41 11 45 16 3 5 9 7 14 4 35 -22 56 277 41
590 -7 158 -7 159 -23 125z"/>
<path d="M1936 3832 c-13 -22 -27 -188 -21 -252 15 -147 62 -264 125 -306 56
-39 82 -33 115 27 l28 51 20 -48 c122 -296 166 -354 387 -506 102 -71 126 -81
187 -76 29 3 56 7 59 11 5 5 -4 62 -22 133 -5 18 1 23 42 33 l48 12 -30 24
c-43 36 -109 66 -127 59 -20 -7 -31 -62 -23 -114 5 -30 3 -40 -7 -40 -20 0
-139 81 -227 155 -125 106 -151 146 -220 341 -112 314 -147 360 -143 191 3
-135 -25 -200 -68 -161 -50 45 -74 129 -90 308 -11 134 -20 178 -33 158z"/>
<path d="M3337 3498 c-90 -237 -61 -540 57 -601 l39 -21 18 23 c25 30 39 85
38 146 l0 50 -35 -67 c-43 -84 -63 -89 -92 -20 -45 104 -50 251 -17 447 8 43
13 81 11 82 -2 2 -10 -16 -19 -39z"/>
<path d="M6462 3325 c-29 -13 -130 -75 -225 -137 -403 -262 -740 -394 -1099
-429 -320 -31 -615 70 -806 276 -31 34 -88 114 -127 179 -38 65 -71 112 -73
106 -8 -22 21 -117 59 -196 71 -150 238 -300 413 -373 240 -100 562 -102 896
-6 307 88 639 262 895 468 73 59 132 123 123 132 -2 2 -27 -7 -56 -20z"/>
<path d="M3546 3039 c-38 -190 105 -450 298 -540 36 -17 70 -29 76 -27 5 1
-25 30 -67 63 -146 114 -234 256 -273 435 -12 52 -23 96 -24 98 -2 1 -6 -12
-10 -29z"/>
<path d="M7230 1705 c-142 -40 -228 -98 -386 -262 l-112 -115 -92 60 c-150 99
-316 149 -460 139 -137 -9 -227 -66 -279 -177 -36 -77 -37 -229 -2 -340 98
-316 359 -535 662 -557 l90 -6 24 -47 c45 -88 146 -158 285 -196 91 -25 316
-25 420 -1 212 51 375 159 433 285 16 35 22 67 22 122 0 104 -25 152 -137 263
l-89 87 31 86 c49 139 64 219 64 334 -1 83 -6 117 -23 161 -26 68 -78 124
-140 152 -62 27 -232 34 -311 12z m270 -61 c91 -38 149 -137 158 -269 5 -95
-6 -155 -55 -288 -29 -77 -40 -97 -52 -93 -246 86 -329 101 -491 91 l-116 -6
-67 90 c-37 49 -70 96 -73 105 -8 20 61 118 128 183 145 140 331 220 478 206
30 -3 71 -11 90 -19z m-1067 -211 c178 -62 339 -185 405 -310 l32 -61 -26 -21
c-15 -12 -31 -21 -37 -21 -28 0 -121 -110 -162 -191 -47 -92 -45 -80 -31 -256
l4 -43 -70 0 c-227 0 -424 142 -551 395 -75 150 -88 307 -34 417 48 98 117
129 277 124 86 -2 121 -8 193 -33z m922 -432 c245 -72 420 -237 419 -396 0
-76 -23 -125 -89 -190 -130 -128 -371 -199 -588 -175 -190 22 -306 90 -368
215 -26 53 -32 80 -37 154 -11 207 91 350 288 404 88 23 275 18 375 -12z"/>
</g>
</svg>
